REM DIRINDEX 1\2,1\3,1\4,1\5\6,1\5\7,1\8
REM DIRNAME cjc115,folder01,folder02,folder03,folder04,folder05,folder06,folder07
TITLE ""
FILE "014 【014】Unit1 (0157 boost_0168 corrupt).mp3" MP3
  TRACK 01 AUDIO
    TITLE "0:"
    INDEX 01 00:00:00
  TRACK 02 AUDIO
    TITLE "2:cjc115_0470"
    INDEX 01 00:00:05
  TRACK 03 AUDIO
    TITLE "0:"
    INDEX 01 00:01:21
  TRACK 04 AUDIO
    TITLE "3:cjc115_0471"
    INDEX 01 00:01:30
  TRACK 05 AUDIO
    TITLE "0:"
    INDEX 01 00:04:05
  TRACK 06 AUDIO
    TITLE "4:cjc115_0472"
    INDEX 01 00:04:15
  TRACK 07 AUDIO
    TITLE "0:"
    INDEX 01 00:07:62
  TRACK 08 AUDIO
    TITLE "2:cjc115_0473"
    INDEX 01 00:08:72
  TRACK 09 AUDIO
    TITLE "0:"
    INDEX 01 00:10:21
  TRACK 10 AUDIO
    TITLE "3:cjc115_0474"
    INDEX 01 00:10:29
  TRACK 11 AUDIO
    TITLE "0:"
    INDEX 01 00:11:70
  TRACK 12 AUDIO
    TITLE "4:cjc115_0475"
    INDEX 01 00:12:07
  TRACK 13 AUDIO
    TITLE "0:"
    INDEX 01 00:15:44
  TRACK 14 AUDIO
    TITLE "2:cjc115_0476"
    INDEX 01 00:16:53
  TRACK 15 AUDIO
    TITLE "0:"
    INDEX 01 00:17:72
  TRACK 16 AUDIO
    TITLE "3:cjc115_0477"
    INDEX 01 00:18:03
  TRACK 17 AUDIO
    TITLE "0:"
    INDEX 01 00:19:22
  TRACK 18 AUDIO
    TITLE "4:cjc115_0478"
    INDEX 01 00:19:34
  TRACK 19 AUDIO
    TITLE "0:"
    INDEX 01 00:22:27
  TRACK 20 AUDIO
    TITLE "2:cjc115_0479"
    INDEX 01 00:23:38
  TRACK 21 AUDIO
    TITLE "0:"
    INDEX 01 00:24:61
  TRACK 22 AUDIO
    TITLE "3:cjc115_0480"
    INDEX 01 00:24:72
  TRACK 23 AUDIO
    TITLE "0:"
    INDEX 01 00:26:34
  TRACK 24 AUDIO
    TITLE "4:cjc115_0481"
    INDEX 01 00:26:36
  TRACK 25 AUDIO
    TITLE "0:"
    INDEX 01 00:31:02
  TRACK 26 AUDIO
    TITLE "2:cjc115_0482"
    INDEX 01 00:32:21
  TRACK 27 AUDIO
    TITLE "0:"
    INDEX 01 00:33:56
  TRACK 28 AUDIO
    TITLE "3:cjc115_0483"
    INDEX 01 00:33:64
  TRACK 29 AUDIO
    TITLE "0:"
    INDEX 01 00:35:19
  TRACK 30 AUDIO
    TITLE "4:cjc115_0484"
    INDEX 01 00:35:29
  TRACK 31 AUDIO
    TITLE "0:"
    INDEX 01 00:39:45
  TRACK 32 AUDIO
    TITLE "2:cjc115_0485"
    INDEX 01 00:40:50
  TRACK 33 AUDIO
    TITLE "0:"
    INDEX 01 00:42:00
  TRACK 34 AUDIO
    TITLE "3:cjc115_0486"
    INDEX 01 00:42:08
  TRACK 35 AUDIO
    TITLE "0:"
    INDEX 01 00:43:11
  TRACK 36 AUDIO
    TITLE "4:cjc115_0487"
    INDEX 01 00:43:29
  TRACK 37 AUDIO
    TITLE "0:"
    INDEX 01 00:47:28
  TRACK 38 AUDIO
    TITLE "2:cjc115_0488"
    INDEX 01 00:48:38
  TRACK 39 AUDIO
    TITLE "0:"
    INDEX 01 00:49:51
  TRACK 40 AUDIO
    TITLE "3:cjc115_0489"
    INDEX 01 00:49:59
  TRACK 41 AUDIO
    TITLE "0:"
    INDEX 01 00:52:00
  TRACK 42 AUDIO
    TITLE "4:cjc115_0490"
    INDEX 01 00:52:10
  TRACK 43 AUDIO
    TITLE "0:"
    INDEX 01 00:57:35
  TRACK 44 AUDIO
    TITLE "2:cjc115_0491"
    INDEX 01 00:58:44
  TRACK 45 AUDIO
    TITLE "0:"
    INDEX 01 00:59:67
  TRACK 46 AUDIO
    TITLE "3:cjc115_0492"
    INDEX 01 01:00:02
  TRACK 47 AUDIO
    TITLE "0:"
    INDEX 01 01:02:08
  TRACK 48 AUDIO
    TITLE "4:cjc115_0493"
    INDEX 01 01:02:16
  TRACK 49 AUDIO
    TITLE "0:"
    INDEX 01 01:06:55
  TRACK 50 AUDIO
    TITLE "2:cjc115_0494"
    INDEX 01 01:07:64
  TRACK 51 AUDIO
    TITLE "0:"
    INDEX 01 01:09:10
  TRACK 52 AUDIO
    TITLE "3:cjc115_0495"
    INDEX 01 01:09:20
  TRACK 53 AUDIO
    TITLE "0:"
    INDEX 01 01:10:30
  TRACK 54 AUDIO
    TITLE "4:cjc115_0496"
    INDEX 01 01:10:39
  TRACK 55 AUDIO
    TITLE "0:"
    INDEX 01 01:14:49
  TRACK 56 AUDIO
    TITLE "2:cjc115_0497"
    INDEX 01 01:15:58
  TRACK 57 AUDIO
    TITLE "0:"
    INDEX 01 01:17:04
  TRACK 58 AUDIO
    TITLE "3:cjc115_0498"
    INDEX 01 01:17:12
  TRACK 59 AUDIO
    TITLE "0:"
    INDEX 01 01:18:29
  TRACK 60 AUDIO
    TITLE "4:cjc115_0499"
    INDEX 01 01:18:47
  TRACK 61 AUDIO
    TITLE "0:"
    INDEX 01 01:21:25
  TRACK 62 AUDIO
    TITLE "2:cjc115_0500"
    INDEX 01 01:22:35
  TRACK 63 AUDIO
    TITLE "0:"
    INDEX 01 01:23:58
  TRACK 64 AUDIO
    TITLE "3:cjc115_0501"
    INDEX 01 01:23:62
  TRACK 65 AUDIO
    TITLE "0:"
    INDEX 01 01:26:42
  TRACK 66 AUDIO
    TITLE "4:cjc115_0502"
    INDEX 01 01:26:54
  TRACK 67 AUDIO
    TITLE "0:"
    INDEX 01 01:31:22
  TRACK 68 AUDIO
    TITLE "2:cjc115_0503"
    INDEX 01 01:32:29
  TRACK 69 AUDIO
    TITLE "0:"
    INDEX 01 01:33:44
  TRACK 70 AUDIO
    TITLE "3:cjc115_0504"
    INDEX 01 01:33:52
  TRACK 71 AUDIO
    TITLE "0:"
    INDEX 01 01:34:71
  TRACK 72 AUDIO
    TITLE "4:cjc115_0505"
    INDEX 01 01:35:04
  TRACK 73 AUDIO
    TITLE "0:"
    INDEX 01 01:38:47
